<?xml version="1.0" encoding="utf-8"?>
<!-- Generator: Adobe Illustrator 24.0.0, SVG Export Plug-In . SVG Version: 6.00 Build 0)  -->
<svg version="1.1" id="Layer_1" xmlns="http://www.w3.org/2000/svg" xmlns:xlink="http://www.w3.org/1999/xlink" x="0px" y="0px"
	 viewBox="0 0 646 646" style="enable-background:new 0 0 646 646;" xml:space="preserve">
<path id="rays" style="fill:#FFBC00;" d="M389.6,100c-17-34-38-65-61-94c-1,29-4,57-11,85c-26-28-56-50-88-71c10,27,15,55,16,84
	c-11-8-24-12-37-18c-22-9-44-18-68-22c18,22,30,48,41,74c-37-6-75-8-112-5c24,16,43,36,62,58c-37,5-74,16-109,29c27,9,54,20,77,37
	c-12,6-24,12-36,19c-20.3,12.6-39.7,26.6-58,42c29-1,57,4,85,11c-28,25-50,56-71,87c27-8,55-14,84-16c-17,33-31,68-40,105
	c23-17,48-30,74-41c-6.2,37.3-7.9,75.3-5,113c6-11,16-18,22-29c8-5,12-13,19-19c4-3,6-6,10-9c3-1,5-3,7-5c6.1,36.9,15.8,73,29,108
	c10-27,20-54,37-77c16,34,37,65,61,94c0-28,3-57,11-84c26,27,56,50,87,71c-8-28-14-55-16-84c2,1,4,1,6,2c32,17,65,29,100,38
	c-7-10-14-20-20-31l-3-3c-7-13.2-13-26.9-18-41c37,6,74.6,8,112,6c-23-17-45-36-62-59c18-1,34-6,52-10c19-6,38-10,56-19
	c-27-8-53-22-77-36c33.9-17,65.8-37.8,95-62c-29,1-57-3-85-10c12-13,24-25,36-39c13-16,24-32,35-49c-27,10-55,14-84,16
	c7-14,14-28,19-43c1-2,2-3,3-5c3-7,5-15,8-22c3-8,4-15,7-23c1-4,1-8,3-12c-22.9,17.1-48.2,30.9-75,41c6-37,9-75,6-112c-2,2-3,4-5,7
	c-15.7,20.5-33.8,39-54,55c-3-34-13-66-24-98c-2-4-4-7-5-11C417.7,50,404.7,76,389.6,100L389.6,100z"/>
<ellipse style="fill:#FFFFFF;" cx="223.6" cy="304.1" rx="48.9" ry="26"/>
<path d="M272.5,304.1c0-11.8-14.8-21.7-35-24.9c-6.5,5.1-10.3,12.9-10.3,21.2c0,13.2,9.3,24.2,21.4,25.9
	C262.9,321.9,272.5,313.6,272.5,304.1z"/>
<ellipse style="fill:#FFFFFF;" cx="421.1" cy="294.2" rx="48.9" ry="26"/>
<path d="M436.1,269.5c-7.5,5-12.1,13.4-12.1,22.4c0,11.7,7.7,21.7,18.5,25.6c16.3-4.2,27.5-13,27.5-23.3
	C469.9,282.6,455.7,272.9,436.1,269.5z"/>
<path style="fill:none;stroke:#AA3900;stroke-width:7.01;stroke-linecap:square;stroke-miterlimit:10;" d="M242.9,410.8
	c34.1,45.2,98.4,54.3,143.7,20.2c0,0,0,0,0,0"/>
<path style="fill:#FFFFFF;" d="M362.9,382c-8.7-14.8-29.9-58-21.4-114.6l-16.9-2.5c-6.3,41.4,1,83.7,20.6,120.7L362.9,382z"/>
<path style="fill:none;stroke:#AA3900;stroke-width:7.01;stroke-linecap:square;stroke-miterlimit:10;" d="M307.8,394.6l59.4-12.9
	c0,0-35.6-45.2-26.6-111"/>
<line style="fill:none;stroke:#000000;stroke-width:7.01;stroke-miterlimit:10;" x1="296.7" y1="293.4" x2="353.6" y2="289.1"/>
<path style="opacity:0.8;fill:#FF00FF;enable-background:new    ;" d="M365.5,253.2l108.3-7.3c6.6-0.4,12.3,4.6,12.8,11.2l2,29.3
	c2.2,33.1-22.8,61.7-55.9,63.9l0,0l-12.6,0.8c-33.1,2.2-61.7-22.8-63.9-55.9l0,0l-2-29.3C353.9,259.3,358.9,253.6,365.5,253.2z"/>
<path style="opacity:0.8;fill:#FF00FF;enable-background:new    ;" d="M172.6,263.8l108.3-7.3c6.6-0.4,12.3,4.6,12.8,11.2l2,29.3
	c2.2,33.1-22.8,61.7-55.9,63.9l0,0l-12.6,0.8c-33.1,2.2-61.7-22.8-63.9-55.9l0,0l-2-29.3C161,269.9,166,264.2,172.6,263.8
	L172.6,263.8z"/>
<path style="fill:none;stroke:#FFFFFF;stroke-width:20;stroke-miterlimit:10;" d="M389,375.9c0,0,30.3-18.3,38.4-6.3
	c8,12,37-6.1,37-6.1"/>
<path style="fill:none;stroke:#FFFFFF;stroke-width:20;stroke-miterlimit:10;" d="M198.3,384.1c0,0,30.3-18.3,38.4-6.3
	s37-6.1,37-6.1"/>
<path style="fill:none;stroke:#000000;stroke-width:7.47;stroke-miterlimit:10;" d="M365.5,253.2l108.3-7.3
	c6.6-0.4,12.3,4.6,12.8,11.2l2,29.3c2.2,33.1-22.8,61.7-55.9,63.9l0,0l-12.6,0.8c-33.1,2.2-61.7-22.8-63.9-55.9l0,0l-2-29.3
	C353.9,259.3,358.9,253.6,365.5,253.2z"/>
<path style="fill:none;stroke:#000000;stroke-width:7.47;stroke-miterlimit:10;" d="M172.6,263.8l108.3-7.3
	c6.6-0.4,12.3,4.6,12.8,11.2l2,29.3c2.2,33.1-22.8,61.7-55.9,63.9l0,0l-12.6,0.8c-33.1,2.2-61.7-22.8-63.9-55.9l0,0l-2-29.3
	C161,269.9,166,264.2,172.6,263.8L172.6,263.8z"/>
</svg>
