<?xml version="1.0" encoding="utf-8"?>
<!-- Generator: Adobe Illustrator 24.0.0, SVG Export Plug-In . SVG Version: 6.00 Build 0)  -->
<svg version="1.1" id="Layer_1" xmlns="http://www.w3.org/2000/svg" xmlns:xlink="http://www.w3.org/1999/xlink" x="0px" y="0px"
	 viewBox="0 0 654 654" style="enable-background:new 0 0 654 654;" xml:space="preserve">
<path id="rays" style="fill:#FFBC00;" d="M393.7,103.9c-18-33-37-65-62-94c1,29-3,57-10,85c-6-5-11-11-17-17c-23-20-45-39-71-54
	c10,27,14,56,16,84c-33-18-68-31-105-40c17,22,30,48,41,74c-10,0-19-3-29-4c-28-2-55-4-83-1c23,16,44,37,62,58c-37,5-74,16-109,29
	c3,2,6,2,9,3c17,6,33,12,49,22c6,5,14,6,19,12c-33,17-65,37-94,61c29,0,57,4,85,11c-28,25-50,56-71,87c27-7,55-15,84-15
	c-19,33-30,69-41,105c23-17,48-32,75-41c-6,37-8,75-5,112c14-22,32-39,51-57c2-2,5-3,7-5c6,37,15,73,29,108c10-27,20-54,37-77
	c15,35,38,65,61,95c-1-29,4-57,11-85c26,27,56,50,87,71c-8-27-14-55-16-84c2,1,4,1,6,2c14,9,28,13,42,20c19,8,38,13,57,18
	c-14-20-27-40-36-62c-1-5-3-9-5-13c37,6,75,9,113,6c-23-16-44-36-62-58c8-2,15-2,23-4c2,0,3-1,5-2c4-1,8-1,12-2c23-7,47-11,68-22
	c-27-8-53-21-77-36c3-2,7-3,11-5c19-11,37-21,55-34c10-8,19-15,28-22c-19-1-38-2-58-5c-9-2-17-4-26-6c27-27,50-57,71-88
	c-27,10-55,15-84,16c17-34,31-68,40-105c-5,4-10,7-15,11c-12,7-23,14-35,20c-8,3-17,7-25,10c7-37,8-75,6-112c-17,23-36,44-59,62v-6
	c-4-20-8-38-13-57c-5-16-9-31-16-46C421.7,53.9,408.7,79.9,393.7,103.9L393.7,103.9z"/>
<path style="fill:none;stroke:#AA3900;stroke-width:7.01;stroke-linecap:square;stroke-miterlimit:10;" d="M311.8,398.6l59.4-12.9
	c0,0-35.6-45.2-26.6-111"/>
<line style="fill:none;stroke:#000000;stroke-width:7.01;stroke-miterlimit:10;" x1="300.7" y1="297.4" x2="357.6" y2="293.1"/>
<ellipse style="fill:#FFFFFF;" cx="227.6" cy="308.1" rx="48.9" ry="26"/>
<path d="M276.5,308.1c0-11.8-14.8-21.7-35-24.9c-6.5,5.1-10.3,12.9-10.3,21.2c0,13.2,9.3,24.2,21.4,25.9
	C266.9,325.9,276.5,317.6,276.5,308.1z"/>
<ellipse style="fill:#FFFFFF;" cx="425.1" cy="298.2" rx="48.9" ry="26"/>
<path d="M440.1,273.5c-7.5,5-12.1,13.4-12.1,22.4c0,11.7,7.7,21.7,18.5,25.6c16.3-4.2,27.5-13,27.5-23.3
	C473.9,286.6,459.7,276.9,440.1,273.5z"/>
<path style="fill:none;stroke:#AA3900;stroke-width:7.01;stroke-linecap:square;stroke-miterlimit:10;" d="M246.9,414.8
	c34.1,45.2,98.4,54.3,143.7,20.2c0,0,0,0,0,0"/>
<path style="opacity:0.9;fill:#6D4224;enable-background:new    ;" d="M369.5,257.2l108.3-7.3c6.6-0.4,12.3,4.6,12.8,11.2l2,29.3
	c2.2,33.1-22.8,61.7-55.9,63.9l0,0l-12.6,0.8c-33.1,2.2-61.7-22.8-63.9-55.9l0,0l-2-29.3C357.9,263.3,362.9,257.6,369.5,257.2z"/>
<path style="opacity:0.9;fill:#6D4224;enable-background:new    ;" d="M176.6,267.8l108.3-7.3c6.6-0.4,12.3,4.6,12.8,11.2l2,29.3
	c2.2,33.1-22.8,61.7-55.9,63.9l0,0l-12.6,0.8c-33.1,2.2-61.7-22.8-63.9-55.9l0,0l-2-29.3C165,273.9,170,268.2,176.6,267.8
	L176.6,267.8z"/>
<path style="fill:none;stroke:#000000;stroke-width:7.47;stroke-miterlimit:10;" d="M369.5,257.2l108.3-7.3
	c6.6-0.4,12.3,4.6,12.8,11.2l2,29.3c2.2,33.1-22.8,61.7-55.9,63.9l0,0l-12.6,0.8c-33.1,2.2-61.7-22.8-63.9-55.9l0,0l-2-29.3
	C357.9,263.3,362.9,257.6,369.5,257.2z"/>
<path style="fill:none;stroke:#000000;stroke-width:7.47;stroke-miterlimit:10;" d="M176.6,267.8l108.3-7.3
	c6.6-0.4,12.3,4.6,12.8,11.2l2,29.3c2.2,33.1-22.8,61.7-55.9,63.9l0,0l-12.6,0.8c-33.1,2.2-61.7-22.8-63.9-55.9l0,0l-2-29.3
	C165,273.9,170,268.2,176.6,267.8L176.6,267.8z"/>
</svg>
