<?xml version="1.0" encoding="utf-8"?>
<!-- Generator: Adobe Illustrator 24.3.0, SVG Export Plug-In . SVG Version: 6.00 Build 0)  -->
<svg version="1.1" id="Layer_1" xmlns="http://www.w3.org/2000/svg" xmlns:xlink="http://www.w3.org/1999/xlink" x="0px" y="0px"
	 viewBox="0 0 210 210" style="enable-background:new 0 0 210 210;" xml:space="preserve">
<style type="text/css">
	.st0{fill:#FF6D2B;}
	.st1{fill-rule:evenodd;clip-rule:evenodd;fill:#F9B406;}
</style>
<circle class="st0" cx="105" cy="105" r="105"/>
<desc>Created with Sketch.</desc>
<g>
	<path class="st1" d="M56.4,135.1l-4.5,3.2c-0.2,0.1-0.4,0.2-0.6,0.3l-7.6,1.6c-0.4,0.1-0.7,0-1.1-0.2l-6.2-3.3
		c-0.5-0.3-0.8-0.8-0.8-1.4V132c0-0.6,0.3-1.1,0.8-1.4l1.5-0.8v-5.3l-5.8-15.8l-1.4-5.2c-0.1-0.5,0-1.1,0.4-1.5l1.6-1.7l-3.6-4.9
		C29,95,28.9,94.5,29,94l2.9-9.3c0.1-0.3,0.3-0.6,0.6-0.8l10-6.6c0.1,0,3.2-1.1,9.5-3.2c0.1,0,1.9-0.1,5.4-0.3l4.1-6.4v-3
		c0-0.4,0.2-0.9,0.5-1.2l2.2-2c0.3-0.2,0.6-0.4,0.9-0.4l3.3-0.3l5.5-7.5c0.2-0.3,0.5-0.5,0.8-0.6l5.4-1.8c0.5-0.2,1.1-0.1,1.5,0.3
		l4.1,3.4h2.7l3.5-8.1c0.1-0.3,0.3-0.5,0.6-0.7l6.7-4.2c0.4-0.3,1-0.3,1.5-0.1l9.2,4l6.6-1.4c1.2-0.3,2.2,0.9,1.8,2.1l-3.8,9.8
		l5.9,5.2l8.4,4.6l2.4-3.8l0.6-9.8l2.7-13c0.3-1.4,2.1-1.7,2.9-0.5l4.5,7.3c0.1,0.1,0.1,0.2,0.2,0.4l1.9,6.5l3.6,1.7
		c0.4,0.2,0.7,0.6,0.8,1l2.4,8.4l1.7,6.1l8.8,5.9c0.3,0.2,0.5,0.5,0.6,0.9l0.9,3.4l5.2,4.3c0.2,0.1,0.3,0.3,0.4,0.5l2.8,6.1l5.7,5.6
		c0.2,0.2,0.4,0.6,0.5,0.9l1.8,12.4c0,0.2,0,0.3,0,0.5l-2.1,13.2c0,0.2-0.1,0.5-0.3,0.7l-5.9,8.4l-4,11.3l-0.6,5.7
		c-0.1,0.7-0.6,1.2-1.3,1.4l-7.9,1.5l-4.9,4.5c-0.5,0.5-1.3,0.6-1.9,0.2l-4.1-2.7l-2.7,2.7c-0.5,0.5-1.2,0.6-1.8,0.3l-6.1-3
		l-6.6-1.1c-0.6-0.1-1.1-0.5-1.2-1.1l-3.1-9.9h-2c-0.8,0-1.5-0.6-1.6-1.4l-0.3-2.8l-1.9,1.5c-1.2,0.9-2.8-0.1-2.5-1.6l0.9-3.7
		l-3.3,3.5c-0.7,0.8-2,0.6-2.5-0.3l-4.4-7.6l-3.7-4H100c-0.2,0-0.3,0-0.5-0.1L96,125h-6.2l-6.7,2.6c-0.2,0.1-0.4,0.1-0.6,0.1H77
		l-5.5,2.7l-0.6,3.5c-0.1,0.7-0.8,1.3-1.5,1.3H56.4z M158.4,162.9c1.1-0.2,2,0.7,1.9,1.8l-1.6,11.3c-0.1,0.4-0.3,0.8-0.6,1l-3.7,2.7
		c-0.3,0.2-0.6,0.3-0.9,0.3h-3.8c-0.6,0-1.1-0.3-1.4-0.9l-2.6-5.1c-0.1-0.1-0.1-0.3-0.1-0.4l-1.8-9c-0.2-1.1,0.8-2.1,1.9-1.8
		l6.4,1.4L158.4,162.9z"/>
</g>
</svg>
