<?xml version="1.0" encoding="utf-8"?>
<!-- Generator: Adobe Illustrator 24.3.0, SVG Export Plug-In . SVG Version: 6.00 Build 0)  -->
<svg version="1.1" id="Layer_1" xmlns="http://www.w3.org/2000/svg" xmlns:xlink="http://www.w3.org/1999/xlink" x="0px" y="0px"
	 viewBox="0 0 210 210" style="enable-background:new 0 0 210 210;" xml:space="preserve">
<style type="text/css">
	.st0{fill:#FF6D2B;}
	.st1{fill-rule:evenodd;clip-rule:evenodd;fill:#F9B406;}
</style>
<circle class="st0" cx="105" cy="105" r="105"/>
<path class="st1" d="M105,180c-41.4,0-75-33.6-75-75s33.6-75,75-75s75,33.6,75,75S146.4,180,105,180z M105,42.5
	c-34.5,0-62.5,28-62.5,62.5s28,62.5,62.5,62.5s62.5-28,62.5-62.5S139.5,42.5,105,42.5z M118.9,128.1l-18.3-18.3
	c-1.3-1.2-1.9-3-1.9-4.8V73.8c0-3.4,2.9-6.3,6.3-6.3s6.3,2.8,6.3,6.3V102l16.8,16.8c2.5,2.6,2.5,6.6,0,9.2
	C125.6,130.6,121.5,130.6,118.9,128.1L118.9,128.1z"/>
</svg>
