<?xml version="1.0" encoding="utf-8"?>
<!-- Generator: Adobe Illustrator 24.3.0, SVG Export Plug-In . SVG Version: 6.00 Build 0)  -->
<svg version="1.1" id="Layer_1" xmlns="http://www.w3.org/2000/svg" xmlns:xlink="http://www.w3.org/1999/xlink" x="0px" y="0px"
	 viewBox="0 0 210 210" style="enable-background:new 0 0 210 210;" xml:space="preserve">
<style type="text/css">
	.st0{fill:#FF6D2B;}
	.st1{fill:#F9B406;}
</style>
<circle class="st0" cx="105" cy="105" r="105"/>
<g id="Layer_2_1_">
</g>
<g id="Layer_1_1_">
	<g>
		<g>
			<path class="st1" d="M147.7,33.9c-2.4-2.5-5.5-3.9-9-3.9H71.2c-3.5,0-6.6,1.4-9,3.9s-3.5,5.8-3.2,9.3l9.3,103.6
				c0.6,6.3,5.7,11.1,12,11.1h0.9l0.5,11.7c0.3,5.8,5.1,10.4,10.9,10.4h24.8c5.8,0,10.6-4.6,10.9-10.4l0.5-11.7h0.6
				c6.3,0,11.5-4.7,12-11.1l9.3-103.6C151.1,39.8,150,36.5,147.7,33.9z M120.3,169.3c0,1.6-1.4,2.8-3,2.8H92.6c-1.6,0-2.8-1.3-3-2.8
				l-0.3-11.4h31.6L120.3,169.3z M133.6,146.2c-0.2,2.2-2.1,3.8-4.3,3.8H80.7c-2.2,0-3.9-1.6-4.3-3.8L67.1,42.5
				c-0.2-1.3,0.3-2.4,1.1-3.2c0.8-0.9,1.9-1.4,3.2-1.4h67.4c1.3,0,2.4,0.5,3.2,1.4s1.3,2.1,1.1,3.2L133.6,146.2z"/>
			<circle class="st1" cx="105" cy="76.4" r="11.4"/>
			<path class="st1" d="M105,60.3c1.7,0,3.2-1.4,3.2-3.2v-5.2c0-1.7-1.4-3.2-3.2-3.2s-3.2,1.4-3.2,3.2v5.2
				C101.9,58.9,103.3,60.3,105,60.3z"/>
			<path class="st1" d="M89.2,65.1c0.6,0.6,1.4,0.9,2.2,0.9s1.6-0.3,2.2-0.9c1.3-1.3,1.3-3.2,0-4.4L90,57c-1.3-1.3-3.2-1.3-4.4,0
				c-1.3,1.3-1.3,3.2,0,4.4L89.2,65.1z"/>
			<path class="st1" d="M88.8,76.4c0-1.7-1.4-3.2-3.2-3.2h-5.2c-1.7,0-3.2,1.4-3.2,3.2c0,1.7,1.4,3.2,3.2,3.2h5.2
				C87.5,79.6,88.8,78.2,88.8,76.4z"/>
			<path class="st1" d="M89.2,87.9l-3.6,3.6c-1.3,1.3-1.3,3.2,0,4.4c0.6,0.6,1.4,0.9,2.2,0.9c0.8,0,1.6-0.3,2.2-0.9l3.6-3.6
				c1.3-1.3,1.3-3.2,0-4.4C92.4,86.7,90.3,86.7,89.2,87.9z"/>
			<path class="st1" d="M101.9,95.8v5.2c0,1.7,1.4,3.2,3.2,3.2s3.2-1.4,3.2-3.2v-5.2c0-1.7-1.4-3.2-3.2-3.2S101.9,94.1,101.9,95.8z"
				/>
			<path class="st1" d="M116.4,87.9c-1.3,1.3-1.3,3.2,0,4.4L120,96c0.6,0.6,1.4,0.9,2.2,0.9c0.8,0,1.6-0.3,2.2-0.9
				c1.3-1.3,1.3-3.2,0-4.4l-3.6-3.6C119.7,86.7,117.7,86.7,116.4,87.9z"/>
			<path class="st1" d="M129.5,73.4h-5.2c-1.7,0-3.2,1.4-3.2,3.2c0,1.7,1.4,3.2,3.2,3.2h5.2c1.7,0,3.2-1.4,3.2-3.2
				S131.2,73.4,129.5,73.4z"/>
			<path class="st1" d="M118.6,66c0.8,0,1.6-0.3,2.2-0.9l3.6-3.6c1.3-1.3,1.3-3.2,0-4.4c-1.3-1.3-3.2-1.3-4.4,0l-3.6,3.6
				c-1.3,1.3-1.3,3.2,0,4.4C117,65.7,117.8,66,118.6,66z"/>
			<path class="st1" d="M123.3,113.8H86.7c-1.7,0-3.2,1.4-3.2,3.2s1.4,3.2,3.2,3.2h36.8c1.7,0,3.2-1.4,3.2-3.2
				C126.5,115.3,125.1,113.8,123.3,113.8z"/>
			<path class="st1" d="M119.4,128.2H90.7c-1.7,0-3.2,1.4-3.2,3.2c0,1.7,1.4,3.2,3.2,3.2h28.9c1.7,0,3.2-1.4,3.2-3.2
				C122.6,129.6,121.1,128.2,119.4,128.2z"/>
		</g>
	</g>
</g>
</svg>
