<?xml version="1.0" encoding="utf-8"?>
<!-- Generator: Adobe Illustrator 24.0.0, SVG Export Plug-In . SVG Version: 6.00 Build 0)  -->
<svg version="1.1" id="Layer_1" xmlns="http://www.w3.org/2000/svg" xmlns:xlink="http://www.w3.org/1999/xlink" x="0px" y="0px"
	 viewBox="0 0 435 433" style="enable-background:new 0 0 435 433;" xml:space="preserve">
<style type="text/css">
	.st0{fill:#FF6D2B;}
	.st1{fill:#F9B406;}
	.st2{fill-rule:evenodd;clip-rule:evenodd;fill:#F9B406;}
</style>
<circle class="st0" cx="105" cy="105" r="105"/>
<path class="st1" d="M176,98h-4.5c-3-12.6-14.4-22.1-28-22.1c-12.6,0-23.3,8.1-27.2,19.3c-3.2-1.6-6.7-2.4-10.3-2.4
	c-3.5,0-6.9,0.8-9.9,2.2C92,83.9,81.4,76,68.9,76c-13.6,0-25,9.4-28,22.1h-4.6c-2.8,0-5.2,2.3-5.2,5.2c0,2.8,2.3,5.2,5.2,5.2h4
	c1.8,14.2,13.9,25.2,28.6,25.2c15.4,0,28-12.1,28.8-27.3c2.3-2,5.2-3.1,8.3-3.1c3.3,0,6.4,1.3,8.7,3.5c1,15,13.5,26.9,28.7,26.9
	c14.7,0,26.8-11,28.6-25.2h4c2.8,0,5.2-2.3,5.2-5.2C181.1,100.3,178.8,98,176,98z"/>
<circle class="st0" cx="330" cy="104.5" r="105"/>
<path class="st1" d="M320.8,89.1c0,0-17.6-9.3-33.5-9.3c-15.9,0-31.7,3.9-31.7,3.9l-0.6,7.7c0,0,1.2,1.2,3.5,3.5
	c2.3,2.1,3.2,24.3,11.9,33.2c8.7,8.7,31.4,9,38.7,4.4c7.4-4.7,14.6-22.5,14.6-30.5c0-2.4,0-4.4,0-4.4c1.8-1.8,10.6-2,12.5,0
	c0,0,0,2,0,4.4c0,8,7.1,25.8,14.6,30.5c7.4,4.7,30,4.4,38.7-4.4c8.7-8.7,9.8-30.9,11.9-33.2c2.3-2.3,3.5-3.5,3.5-3.5l-0.6-7.7
	c0,0-15.7-3.9-31.7-3.9s-33.5,9.3-33.5,9.3C335.3,87.6,325,87.7,320.8,89.1z"/>
<circle class="st0" cx="106.2" cy="327.5" r="105"/>
<g>
	<g>
		<path class="st2" d="M108.5,304.2h-4.9c-2.4,0-4.6,1.2-5.8,3.2c-0.8-1.7-1.9-3.2-3.2-4.6c-1.4-1.5-3-2.8-4.7-3.8h32.5
			c-1.7,1.1-3.3,2.3-4.7,3.8c-1.3,1.4-2.4,3-3.3,4.7C113.2,305.5,111,304.2,108.5,304.2 M179.1,309.1c-3-8.3-9.8-13.7-19.7-15.6
			c-6.4-1.2-12.1-0.6-13.4-0.4c-0.1,0-0.3,0-0.6,0H66.7c-0.3,0-0.5,0-0.6,0c-1.3-0.2-7-0.8-13.4,0.4c-9.9,1.9-16.7,7.3-19.7,15.6
			c-4,11.1-1.5,27.6,6,40c4.9,8.1,11.3,13.1,17.9,13.9c1.3,0.2,2.7,0.3,4,0.3c7.3,0,14.4-2.6,20.7-7.7c10.1-8.2,16.9-21.8,18.2-36.5
			l2.9-8.3c0.1-0.4,0.5-0.7,1-0.7h4.9c0.4,0,0.8,0.3,1,0.7l3,8.6c1.4,14.5,8.1,28,18.1,36.2c6.3,5.1,13.3,7.7,20.7,7.7
			c1.3,0,2.7-0.1,4-0.3c6.6-0.8,12.9-5.8,17.9-13.9C180.8,336.7,183.1,320.2,179.1,309.1"/>
	</g>
</g>
<circle class="st0" cx="330" cy="328" r="105"/>
<g>
	<g>
		<path class="st2" d="M402.1,313.2c1.5,0,2.7-1,2.8-2.5c0.1-1.6-0.9-3-2.5-3.3l-13-1.8c-6.1-1.2-24.4-3.6-54.9,2.1
			c-3,0.6-6,0.6-9,0c-30.4-5.7-48.6-3.3-54.9-2.1l-13,1.8c-1.6,0.1-2.7,1.6-2.5,3.3c0.1,1.5,1.5,2.5,2.8,2.5c0.1,0,0.3,0,0.4,0
			l2.7-0.4c-3.6,4.3-6.9,10.6-5.2,17.4c1.5,6.4,10.6,15.1,22.2,21.1c7.3,3.9,21.6,9.6,34,4.9c5.5-2.1,6.3-8.1,7-13.9
			c1.2-8.5,2.4-13.8,10.8-13.8c8.4,0,9.6,5.2,10.8,13.8c0.7,5.8,1.6,11.8,7,13.9c3.3,1.2,6.7,1.8,10.2,1.8c9.4,0,18.4-3.9,23.8-6.7
			c11.5-6,20.5-14.7,22.2-21.1c1.6-6.7-1.8-13-5.2-17.4l2.7,0.3C401.8,313.2,402,313.2,402.1,313.2"/>
	</g>
</g>
</svg>
