<?xml version="1.0" encoding="utf-8"?>
<!-- Generator: Adobe Illustrator 24.3.0, SVG Export Plug-In . SVG Version: 6.00 Build 0)  -->
<svg version="1.1" xmlns="http://www.w3.org/2000/svg" xmlns:xlink="http://www.w3.org/1999/xlink" x="0px" y="0px"
	 viewBox="0 0 210 210" style="enable-background:new 0 0 210 210;" xml:space="preserve">
<style type="text/css">
	.st0{fill:#FF6D2B;}
	.st1{fill:#F9B406;}
</style>
<g id="Layer_2">
	<circle class="st0" cx="105" cy="105" r="105"/>
</g>
<g id="Layer_1">
	<g>
		<g>
			<path class="st1" d="M105,64.9c-22.1,0-40.1,18-40.1,40.1s18,40.1,40.1,40.1s40.1-18,40.1-40.1S127.1,64.9,105,64.9z"/>
			<path class="st1" d="M105,52.4c3.9,0,7.3-3.3,7.3-7.3v-7.9c0-3.9-3.3-7.3-7.3-7.3s-7.3,3.3-7.3,7.3v7.9
				C97.7,49.3,101.1,52.4,105,52.4z"/>
			<path class="st1" d="M57.5,67.9c1.4,1.4,3.3,2.2,5.2,2.2s3.8-0.8,5.2-2.2c2.8-2.8,2.8-7.4,0-10.3l-5.5-5.5
				c-2.8-2.8-7.4-2.8-10.3,0c-2.8,2.8-2.8,7.4,0,10.3L57.5,67.9z"/>
			<path class="st1" d="M52.4,105c0-3.9-3.3-7.3-7.3-7.3h-7.9c-3.9,0-7.3,3.3-7.3,7.3s3.3,7.3,7.3,7.3h7.9
				C49.3,112.3,52.4,108.9,52.4,105z"/>
			<path class="st1" d="M57.5,142.1l-5.5,5.5c-2.8,2.8-2.8,7.4,0,10.3c1.4,1.4,3.3,2.2,5.2,2.2c1.9,0,3.8-0.8,5.2-2.2l5.5-5.5
				c2.8-2.8,2.8-7.4,0-10.3C65.1,139.3,60.3,139.3,57.5,142.1z"/>
			<path class="st1" d="M105,157.6c-3.9,0-7.3,3.3-7.3,7.3v7.9c0,3.9,3.3,7.3,7.3,7.3s7.3-3.3,7.3-7.3v-7.9
				C112.3,160.7,108.9,157.6,105,157.6z"/>
			<path class="st1" d="M152.5,142.1c-2.8-2.8-7.4-2.8-10.3,0c-2.8,2.8-2.8,7.4,0,10.3l5.5,5.5c1.4,1.4,3.3,2.2,5.2,2.2
				c1.9,0,3.8-0.8,5.2-2.2c2.8-2.8,2.8-7.4,0-10.3L152.5,142.1z"/>
			<path class="st1" d="M172.7,97.7h-7.9c-3.9,0-7.3,3.3-7.3,7.3s3.3,7.3,7.3,7.3h7.9c3.9,0,7.3-3.3,7.3-7.3S176.7,97.7,172.7,97.7z
				"/>
			<path class="st1" d="M147.3,69.9c1.9,0,3.8-0.8,5.2-2.2l5.5-5.5c2.8-2.8,2.8-7.4,0-10.3c-2.8-2.8-7.4-2.8-10.3,0l-5.5,5.5
				c-2.8,2.8-2.8,7.4,0,10.3C143.5,69.3,145.4,69.9,147.3,69.9z"/>
		</g>
	</g>
</g>
</svg>
