<?xml version="1.0" encoding="utf-8"?>
<!-- Generator: Adobe Illustrator 24.3.0, SVG Export Plug-In . SVG Version: 6.00 Build 0)  -->
<svg version="1.1" id="Layer_1" xmlns="http://www.w3.org/2000/svg" xmlns:xlink="http://www.w3.org/1999/xlink" x="0px" y="0px"
	 viewBox="0 0 210 210" style="enable-background:new 0 0 210 210;" xml:space="preserve">
<style type="text/css">
	.st0{fill:#FF6D2B;}
	.st1{fill:#F9B406;}
</style>
<circle class="st0" cx="105" cy="104.9" r="105"/>
<g>
	<path class="st1" d="M179.6,106.4c-3.2-6.4-7-12.3-11.8-17.2l7-7c2.1-2.1,2.1-5.4,0-7.5s-5.4-2.1-7.5,0l-7,7
		c-5.4-4.3-10.7-8.6-16.6-11.3l4.3-8.6c1.6-2.7,0.5-5.9-2.1-7.5s-5.9-0.5-7.5,2.1l-4.8,9.1c-7-2.7-15-4.3-23.1-4.8v-8.6
		c0-3.2-2.1-5.4-5.4-5.4s-5.4,2.1-5.4,5.4v8.1c-8.1,0.5-16.1,2.1-24.2,5.4l-4.8-9.1c-1.6-2.7-4.8-3.2-7.5-2.1
		c-2.1,1.6-3.2,4.8-2.1,7.5l4.3,8.6c-5.9,3.2-11.3,7-16.1,11.3l-7-7c-2.1-2.1-5.4-2.1-7.5,0c-2.1,2.1-2.1,5.4,0,7.5l7,7
		c-4.3,5.4-8.6,10.7-11.3,17.2c-0.5,1.6-0.5,3.2,0,4.8c20.9,41.3,70.8,57.4,112.2,37c16.1-8.1,29-20.9,37-37
		C180.1,109.6,180.1,108,179.6,106.4z M105,146.1c-26.3,0-51-14.5-63.9-37.6C61,73.6,105,60.7,140.4,80.1
		c11.8,6.4,22,16.6,28.4,28.4C156,132.1,131.3,146.6,105,146.1z"/>
	<circle class="st1" cx="105" cy="108.5" r="27.9"/>
</g>
</svg>
