<?xml version="1.0" encoding="utf-8"?>
<!-- Generator: Adobe Illustrator 24.3.0, SVG Export Plug-In . SVG Version: 6.00 Build 0)  -->
<svg version="1.1" id="Layer_1" xmlns="http://www.w3.org/2000/svg" xmlns:xlink="http://www.w3.org/1999/xlink" x="0px" y="0px"
	 viewBox="0 0 210 210" style="enable-background:new 0 0 210 210;" xml:space="preserve">
<style type="text/css">
	.st0{fill:#FF6D2B;}
	.st1{fill-rule:evenodd;clip-rule:evenodd;fill:#F9B406;}
</style>
<circle class="st0" cx="105" cy="105" r="105"/>
<desc>Created with Sketch.</desc>
<g>
	<g>
		<path class="st1" d="M104.6,90.3c-2.7,0.2-5.1,0.9-7.2,2l0.8-2.7c0.6-2.6,0.2-5.1-1.1-7.5h16.2c-1.4,2.3-1.8,5-1.1,7.5l0.8,2.7
			C110,90.9,107.3,90.2,104.6,90.3 M167.8,76.2h-43.6H86H42.3c-6.9,0-12.5,5-12.5,11v36.6c0,6,5.6,11,12.3,11h23.5
			c5.9,0,11.6-1.8,16.1-4.8c4.7-3.2,8-7.8,9.2-12.8l3.9-15.5c1.2-1.4,5-5.3,9.8-5.3c3.5-0.2,6.9,1.7,10.2,5.4l3.9,15.5
			c1.2,5.1,4.5,9.6,9.2,12.8c4.5,3.2,10.4,4.8,16.1,4.8h23.5c6.8,0,12.3-5,12.3-11V87.1C180.1,81.1,174.6,76.2,167.8,76.2"/>
	</g>
</g>
</svg>
